<svg width="28" height="28" viewBox="0 0 28 28" fill="none" xmlns="http://www.w3.org/2000/svg">
<path d="M13.9531 13.4609C15.5469 13.4609 16.9141 12.0312 16.9141 10.1875C16.9141 8.36719 15.5391 7 13.9531 7C12.3594 7 10.9844 8.39844 10.9844 10.2031C10.9844 12.0312 12.3516 13.4609 13.9531 13.4609ZM5.42969 13.6328C6.8125 13.6328 8.00781 12.3828 8.00781 10.7734C8.00781 9.1875 6.8125 8.00781 5.42969 8.00781C4.04688 8.00781 2.84375 9.21875 2.84375 10.7891C2.84375 12.3828 4.03906 13.6328 5.42969 13.6328ZM22.4688 13.6328C23.8594 13.6328 25.0547 12.3828 25.0547 10.7891C25.0547 9.21875 23.8516 8.00781 22.4688 8.00781C21.0938 8.00781 19.8906 9.1875 19.8906 10.7734C19.8906 12.3828 21.0859 13.6328 22.4688 13.6328ZM1.32812 20.3125H6.91406C6.13281 19.1953 7.04688 16.9531 8.66406 15.7031C7.84375 15.1562 6.78906 14.7578 5.42188 14.7578C2.10156 14.7578 0 17.2109 0 19.2422C0 19.9297 0.367188 20.3125 1.32812 20.3125ZM26.5703 20.3125C27.5312 20.3125 27.8984 19.9297 27.8984 19.2422C27.8984 17.2109 25.7969 14.7578 22.4766 14.7578C21.1094 14.7578 20.0547 15.1562 19.2344 15.7031C20.8516 16.9531 21.7656 19.1953 20.9844 20.3125H26.5703ZM9.3125 20.3125H18.5781C19.7578 20.3125 20.1719 19.9688 20.1719 19.3125C20.1719 17.4062 17.7812 14.7812 13.9453 14.7812C10.1172 14.7812 7.71875 17.4062 7.71875 19.3125C7.71875 19.9688 8.13281 20.3125 9.3125 20.3125Z" fill="#D8D7E0"/>
</svg>
